<svg xmlns="http://www.w3.org/2000/svg" width="46" height="46" viewBox="0 0 46 46" fill="none">
  <path d="M19.3333 12.894L19.3366 12.9045C19.859 14.5683 19.444 16.3579 18.2511 17.6082L15.5952 21.1386C17.9449 25.2928 20.6717 28.0195 24.8618 30.4003L28.5054 27.6498C29.0829 27.0992 29.8387 26.7511 30.5818 26.5846C31.373 26.4073 32.2777 26.4066 33.1348 26.6971C35.2567 27.3976 37.5001 27.7554 39.7903 27.7554C42.3884 27.7554 44.4998 29.8669 44.5 32.4649V32.465V39.7903C44.5 42.3885 42.3885 44.5 39.7903 44.5C18.6755 44.5 1.5 27.3246 1.5 6.20969C1.5 3.61147 3.61146 1.5 6.20968 1.5H13.5555C16.1537 1.5 18.2652 3.61146 18.2651 6.20979L19.3333 12.894ZM19.3333 12.894L19.3299 12.8836M19.3333 12.894L19.3299 12.8836M19.3299 12.8836C18.6244 10.7468 18.2651 8.50229 18.2651 6.20988L19.3299 12.8836Z" stroke="white" stroke-width="3"/>
</svg>